<svg width="205" height="149" viewBox="0 0 205 149" fill="none" xmlns="http://www.w3.org/2000/svg">
<path d="M87.8036 139.347C126.206 139.347 157.338 108.153 157.338 69.6733C157.338 31.1938 126.206 0 87.8036 0C49.4007 0 18.2691 31.1938 18.2691 69.6733C18.2691 108.153 49.4007 139.347 87.8036 139.347Z" fill="#F2F2F2"/>
<path d="M27.5901 149C42.8277 149 55.1802 147.02 55.1802 144.577C55.1802 142.134 42.8277 140.154 27.5901 140.154C12.3525 140.154 0 142.134 0 144.577C0 147.02 12.3525 149 27.5901 149Z" fill="#F2F2F2"/>
<path d="M162.185 144.504C185.762 144.504 204.875 141.44 204.875 137.66C204.875 133.88 185.762 130.816 162.185 130.816C138.608 130.816 119.495 133.88 119.495 137.66C119.495 141.44 138.608 144.504 162.185 144.504Z" fill="#F2F2F2"/>
<path d="M152.7 71.8745C152.7 71.8745 153.063 73.0884 151.004 74.1809C148.944 75.2735 148.339 79.4008 150.762 80.6147C153.185 81.8286 153.912 83.4067 152.7 84.4992C151.489 85.5917 149.308 88.5051 152.215 89.2335C155.123 89.9618 155.486 91.4185 154.638 92.0255C153.79 92.6324 156.577 90.933 156.577 90.933C156.577 90.933 157.061 93.8464 159.606 93.118C162.15 92.3897 169.297 78.551 165.663 76.6088C162.029 74.6665 152.7 71.8745 152.7 71.8745Z" fill="#2F2E41"/>
<path d="M157.091 83.5962C157.091 83.5962 158.348 88.0034 156.149 88.3182C154.784 88.5313 153.491 89.0713 152.379 89.8922L156.463 95.2438H164.003L168.715 90.5218C168.715 90.5218 162.432 85.7998 163.689 82.9666C164.945 80.1334 157.091 83.5962 157.091 83.5962Z" fill="#FFB9B9"/>
<path opacity="0.1" d="M157.091 83.5962C157.091 83.5962 158.348 88.0034 156.149 88.3182C154.784 88.5313 153.491 89.0713 152.379 89.8922L156.463 95.2438H164.003L168.715 90.5218C168.715 90.5218 162.432 85.7998 163.689 82.9666C164.945 80.1334 157.091 83.5962 157.091 83.5962Z" fill="black"/>
<path d="M158.976 138.371L166.202 140.89L171.229 141.204L170.915 136.797L160.547 133.725L158.976 138.371Z" fill="#FFB9B9"/>
<path d="M168.244 137.427C168.244 137.427 168.244 141.834 168.873 141.834C169.501 141.834 177.984 140.89 180.497 141.834C183.01 142.778 186.78 139.316 184.895 137.427C183.01 135.538 179.936 132.705 178.017 133.334C176.099 133.964 168.244 135.538 168.244 135.538V137.427Z" fill="#575A89"/>
<path d="M145.152 133.334C145.152 133.334 141.382 140.889 143.896 141.519C146.409 142.149 149.237 141.204 149.551 140.889C149.865 140.575 154.263 139.316 154.892 139.945C155.52 140.575 155.52 137.427 155.52 137.427L145.152 133.334Z" fill="#575A89"/>
<path d="M148.294 122.946C148.294 122.946 142.325 131.131 146.723 133.334C151.122 135.538 172.171 135.538 173.742 133.334C175.313 131.131 175.941 124.205 173.742 123.576C171.543 122.946 148.294 122.946 148.294 122.946Z" fill="#2F2E41"/>
<path opacity="0.2" d="M148.294 122.946C148.294 122.946 142.325 131.131 146.723 133.334C151.122 135.538 172.171 135.538 173.742 133.334C175.313 131.131 175.941 124.205 173.742 123.576C171.543 122.946 148.294 122.946 148.294 122.946Z" fill="black"/>
<path d="M159.605 85.7997C163.595 85.7997 166.83 82.5581 166.83 78.5594C166.83 74.5606 163.595 71.319 159.605 71.319C155.614 71.319 152.379 74.5606 152.379 78.5594C152.379 82.5581 155.614 85.7997 159.605 85.7997Z" fill="#FFB9B9"/>
<path d="M148.294 89.8921L154.578 88.6329C154.578 88.6329 156.149 93.6697 161.175 92.7253C166.202 91.7809 167.459 88.6329 167.459 88.6329C167.459 88.6329 171.229 90.2069 171.543 90.2069C171.857 90.2069 175.941 91.7809 175.941 92.7253C175.941 93.6697 171.229 103.114 171.229 103.114L171.857 120.113L148.608 119.483L150.179 102.799L148.294 89.8921Z" fill="#6C63FF"/>
<path d="M144.838 98.0769C144.838 98.0769 142.953 114.761 144.21 116.02C145.467 117.28 150.493 120.742 150.493 120.742V116.965L147.98 112.243L150.493 101.225L144.838 98.0769Z" fill="#FFB9B9"/>
<path d="M177.355 97.6047C177.355 97.6047 176.255 114.761 176.255 115.391C176.255 116.02 173.428 118.224 172.485 118.224C171.543 118.224 170.915 116.65 170.915 116.65L173.114 114.132L171.543 101.225L177.355 97.6047Z" fill="#FFB9B9"/>
<path d="M174.37 121.687C174.37 121.687 188.508 113.817 188.822 121.687C189.137 129.557 181.596 132.705 181.596 132.705C181.596 132.705 162.118 138.557 161.332 136.418C160.547 134.279 158.976 130.816 160.233 130.501C161.489 130.186 163.06 129.557 163.689 130.186C164.317 130.816 172.171 125.464 172.171 125.464L174.37 121.687Z" fill="#2F2E41"/>
<path opacity="0.2" d="M180.968 120.742C180.968 120.742 178.141 122.002 177.198 122.946C176.256 123.89 172.171 125.464 172.171 125.464" stroke="black" stroke-width="2" stroke-miterlimit="10"/>
<path d="M150.179 90.5217L148.294 89.8921C148.294 89.8921 141.382 97.1325 143.582 99.0213C145.781 100.91 147.038 101.54 147.666 102.169C148.294 102.799 151.436 103.114 151.436 103.114L150.179 90.5217Z" fill="#6C63FF"/>
<path d="M173.114 92.0957L175.941 92.7253C175.941 92.7253 178.141 97.4473 178.769 98.0769C179.397 98.7065 177.826 98.3917 176.884 99.6509C175.941 100.91 174.999 103.114 173.114 103.114C171.229 103.114 168.715 99.9657 168.715 99.9657L173.114 92.0957Z" fill="#6C63FF"/>
<path d="M148.923 124.52C148.923 124.52 136.984 116.02 132.9 122.316C128.816 128.612 150.493 137.112 153.635 138.371C156.777 139.63 159.604 140.89 159.604 140.89C159.604 140.89 162.432 133.964 162.432 132.705C162.432 131.446 160.233 131.446 159.604 131.446C158.976 131.446 156.149 130.816 155.52 129.872C154.892 128.927 148.923 124.52 148.923 124.52Z" fill="#2F2E41"/>
<path opacity="0.2" d="M142.325 122.316C142.325 122.316 145.467 124.835 148.294 125.464C151.122 126.094 152.064 127.668 152.064 127.668" stroke="black" stroke-width="2" stroke-miterlimit="10"/>
<path d="M146.755 110.48L147.006 123.809C147.015 124.249 147.196 124.668 147.512 124.975C147.827 125.281 148.251 125.451 148.69 125.446L173.445 125.167C173.866 125.162 174.271 124.997 174.576 124.706C174.881 124.414 175.064 124.017 175.088 123.595L175.84 110.545C175.853 110.318 175.819 110.091 175.742 109.877C175.664 109.664 175.544 109.468 175.388 109.303C175.233 109.138 175.045 109.006 174.837 108.916C174.628 108.826 174.404 108.78 174.177 108.78H148.42C148.199 108.78 147.98 108.824 147.776 108.91C147.572 108.996 147.387 109.122 147.232 109.28C147.077 109.438 146.955 109.626 146.873 109.832C146.791 110.038 146.751 110.258 146.755 110.48Z" fill="#575A89"/>
<path d="M159.991 69.4641C159.991 69.4641 160.393 70.8089 158.112 72.0192C155.83 73.2295 155.159 77.8017 157.843 79.1465C160.527 80.4913 161.333 82.2395 159.991 83.4498C158.648 84.6601 156.233 87.8875 159.454 88.6944C162.675 89.5012 163.077 91.115 162.138 91.7874C161.198 92.4597 164.285 90.5771 164.285 90.5771C164.285 90.5771 164.822 93.8045 167.641 92.9977C170.459 92.1908 173.271 77.5239 170.129 73.7463C167.208 70.2338 159.991 69.4641 159.991 69.4641Z" fill="#2F2E41"/>
<path d="M159.133 68.0799C159.134 66.1097 165.016 67.5253 167.538 70.2761C169.285 72.181 171.938 75.0469 169.715 77.067C167.492 79.0871 173.525 81.7353 175.143 82.5382C176.761 83.3411 179.956 85.7964 177.071 87.4436C174.187 89.0907 174.233 90.7535 175.319 91.1472C176.404 91.5408 172.925 90.5618 172.925 90.5618C172.925 90.5618 173.277 93.8148 170.346 93.7992C167.414 93.7836 159.005 77.6428 161.014 73.1563C162.882 68.9847 159.133 68.0799 159.133 68.0799Z" fill="#2F2E41"/>
<path d="M160.407 67.648C152.541 67.1734 151.751 73.1066 151.751 73.1066C151.806 76.5402 157.247 74.8672 158.759 75.379C160.582 74.0647 164.097 71.5778 166.611 69.803C164.786 68.5154 162.636 67.7686 160.407 67.648Z" fill="#2F2E41"/>
<path d="M158.166 105.509C158.166 105.509 151.11 72.3722 106.943 48.3342" stroke="#3F3D56" stroke-width="2" stroke-miterlimit="10"/>
<path d="M108.763 47.6116L108.851 47.9749L107.065 48.409L107.628 50.1628L107.272 50.2769L106.587 48.1408L108.763 47.6116Z" fill="#3F3D56"/>
<path d="M12.7647 139.367C12.7647 143.564 10.2748 145.03 7.20309 145.03C7.13194 145.03 7.06089 145.029 6.98996 145.027C6.84764 145.024 6.70667 145.017 6.5674 145.008C3.79524 144.811 1.64148 143.271 1.64148 139.367C1.64148 135.328 6.79308 130.231 7.18005 129.854L7.18073 129.853C7.19564 129.838 7.2031 129.831 7.2031 129.831C7.2031 129.831 12.7647 135.17 12.7647 139.367Z" fill="#6C63FF"/>
<path d="M7.00056 144.388L9.0347 141.54L6.99548 144.7L6.99006 145.027C6.84774 145.024 6.70677 145.017 6.56751 145.008L6.78675 140.809L6.78505 140.776L6.78878 140.77L6.80945 140.374L4.76514 137.205L6.81588 140.076L6.82063 140.16L6.98633 136.988L5.23615 133.714L7.00768 136.431L7.18015 129.854L7.18083 129.831V129.853L7.15203 135.04L8.89442 132.983L7.14491 135.486L7.09883 138.327L8.72567 135.601L7.09205 138.745L7.0663 140.324L9.42811 136.53L7.05749 140.875L7.00056 144.388Z" fill="#3F3D56"/>
<path d="M39.2922 138.28L40.4819 137.394C40.4819 137.394 41.2694 141.802 40.3907 142.462C39.5119 143.123 36.2166 144.223 36.2166 145.544C36.2166 146.865 28.7472 148.626 28.5275 146.645C28.3078 144.664 29.1866 143.563 29.1866 143.563C29.1866 143.563 32.7016 140.041 33.141 139.381C33.5803 138.72 34.6788 137.4 34.6788 137.4L39.2922 138.28Z" fill="#2F2E41"/>
<path d="M21.7172 83.4684C21.7172 83.4684 21.7501 83.6621 21.8072 84.0165C21.86 84.3313 21.9325 84.7759 22.0203 85.3241C22.943 90.9659 25.6342 107.574 25.4519 108.123C25.2322 108.783 23.6944 111.204 25.4519 111.865C25.621 111.929 25.8034 112.136 25.9989 112.461C26.3763 113.163 26.6874 113.898 26.9282 114.658C27.9761 117.705 29.0965 122.581 29.7446 125.957C30.028 127.441 30.2213 128.634 30.2784 129.259C30.2983 129.404 30.3005 129.55 30.285 129.695C30.0653 130.576 31.6031 133.657 32.2622 134.538C32.9213 135.418 34.0197 136.299 33.8 137.179C33.5803 138.06 39.2922 140.481 39.9513 138.94C40.6103 137.399 40.6103 136.519 40.83 136.079C41.0497 135.638 41.2694 132.557 40.171 132.116C39.0725 131.676 39.7316 123.972 38.6331 122.431C38.2663 121.918 37.7061 120.181 37.1195 118.092C36.8888 117.273 36.6559 116.402 36.4275 115.528C35.5004 111.946 34.6788 108.343 34.6788 108.343L34.8984 82.5879L22.8156 81.047L22.5059 81.7316L21.8885 83.0898L21.7172 83.4684Z" fill="#2F2E41"/>
<path d="M21.0581 125.733C21.0581 125.733 19.3006 123.972 18.4219 125.733C17.5431 127.494 16.6644 134.318 15.1265 135.859C13.5887 137.4 11.6115 145.104 13.8084 145.544C16.0053 145.985 18.4219 144.884 18.6415 143.563C18.8612 142.242 23.4747 135.418 23.4747 134.758C23.4747 134.098 20.399 131.676 20.399 131.676L21.0581 125.733Z" fill="#2F2E41"/>
<path d="M48.0798 71.3616C48.0798 71.3616 45.2238 97.1164 44.5648 99.5378C43.9057 101.959 40.3907 111.204 39.2923 112.745C38.1938 114.286 31.1638 126.833 30.285 127.494C29.4063 128.154 27.6488 129.915 27.6488 129.915C27.6488 129.915 24.3535 133.217 23.9141 133.878C23.4747 134.538 19.74 132.557 19.5203 131.236C19.3006 129.915 19.74 127.714 19.9597 126.833C20.1794 125.953 19.5203 124.632 20.1794 123.972C20.8385 123.311 24.1338 120.01 24.1338 118.469C24.1338 116.928 29.8457 107.903 32.0425 105.921C34.2394 103.94 33.8 100.638 33.8 100.638V87.2107L21.7172 83.4685C21.7172 83.4685 22.3763 72.9024 23.9141 72.9024C25.4519 72.9024 45.6632 69.3804 48.0798 71.3616Z" fill="#2F2E41"/>
<path d="M30.285 34.6004C34.2889 34.6004 37.5347 31.3481 37.5347 27.3362C37.5347 23.3243 34.2889 20.072 30.285 20.072C26.2811 20.072 23.0353 23.3243 23.0353 27.3362C23.0353 31.3481 26.2811 34.6004 30.285 34.6004Z" fill="#9F616A"/>
<path d="M32.7016 33.0595C32.7016 33.0595 33.5803 36.3614 34.6788 37.2419C35.7772 38.1224 31.8228 41.8645 31.8228 41.8645L24.3534 42.3048L23.0353 38.1224C23.0353 38.1224 25.4518 33.2796 24.7928 30.1978C24.1337 27.116 32.7016 33.0595 32.7016 33.0595Z" fill="#9F616A"/>
<path d="M35.7772 36.8018C35.7772 36.8018 33.8 37.0219 33.3606 37.6823C32.9213 38.3426 29.8456 40.3238 27.4291 39.8835C25.0125 39.4433 23.4747 38.7829 23.0353 39.003C22.5959 39.2231 21.7172 43.8458 21.7172 43.8458L24.1337 50.8899L23.6944 70.261L23.0353 75.5441C23.0353 75.5441 21.7172 73.783 26.9897 74.8837C32.2622 75.9843 39.0725 74.0032 41.2694 73.7831C43.4663 73.5629 47.201 72.9025 47.4207 71.5818C47.6404 70.261 46.7616 65.4182 46.7616 65.4182L43.2466 50.6697L41.0497 42.7452L35.7772 36.8018Z" fill="#6C63FF"/>
<path d="M33.6992 35.8082C33.6992 35.8082 35.5575 34.8206 36.2166 35.7011C36.8757 36.5816 45.2238 37.9023 45.2238 38.5627C45.2238 39.2231 46.9813 57.0534 46.5419 58.5943C46.1026 60.1352 47.4207 61.8962 47.4207 61.8962L48.9585 68.5C48.9585 68.5 53.1326 81.0472 51.3751 81.4874C49.6176 81.9277 48.0798 81.4874 47.4207 81.4874C46.7616 81.4874 46.9813 73.1226 45.2238 70.9213C43.4663 68.7201 41.0497 63.2169 40.6104 62.1163C40.171 61.0157 34.6788 45.8269 34.8985 44.0659C35.1182 42.3049 33.6992 35.8082 33.6992 35.8082Z" fill="#D0CDE1"/>
<path d="M24.5731 36.8018C24.5731 36.8018 22.8156 36.8018 22.596 37.242C22.3763 37.6823 20.1794 40.5439 19.3006 41.2043C18.4219 41.8647 15.3463 44.7263 15.3463 45.3867C15.3463 46.0471 21.7172 50.8899 21.7172 50.8899C21.7172 50.8899 24.3535 63.8773 23.0353 68.2798C21.7172 72.6824 19.74 83.2484 20.6188 83.9088C21.4975 84.5692 23.4747 84.7893 23.4747 83.9088C23.4747 83.0283 24.7928 73.5629 25.8913 71.5817C26.9897 69.6006 30.285 57.0534 28.9669 53.5314C27.6488 50.0093 24.5731 36.8018 24.5731 36.8018Z" fill="#D0CDE1"/>
<path d="M53.5719 58.5942C53.5719 58.5942 53.7916 65.4182 51.375 68.9402C48.9585 72.4622 47.4206 76.4245 47.4206 76.4245C47.4206 76.4245 43.4663 75.3239 42.8072 74.0031C42.1481 72.6823 37.9741 73.783 37.9741 73.3427C37.9741 72.9025 43.0269 70.7012 43.4663 70.2609C43.9056 69.8207 45.4435 69.8207 46.3222 68.9402C47.201 68.0597 47.4206 66.0785 47.4206 66.0785L48.2994 60.3552L53.5719 58.5942Z" fill="#9F616A"/>
<path d="M35.2782 22.8574C35.8359 22.8066 36.4111 22.7507 36.904 22.4844C38.0085 21.8876 38.3014 20.188 37.4606 19.2546C37.2288 19.0171 36.9695 18.8082 36.6882 18.6323L35.0183 17.4934C34.2798 16.9897 33.5237 16.4778 32.6623 16.2403C31.8832 16.0255 31.0603 16.0476 30.2538 16.0978C28.6881 16.1953 27.1128 16.3968 25.6401 16.9384C24.1675 17.48 22.7939 18.3862 21.902 19.6793C20.4881 21.7291 20.4686 24.4938 21.2474 26.8603C22.0261 29.2268 23.5054 31.2875 24.9629 33.3065L25.7192 29.6089C25.7866 29.2796 25.8737 28.9187 26.147 28.7238C26.8265 28.2393 27.6575 29.234 28.4914 29.2275C29.0272 29.2234 29.477 28.7818 29.68 28.285C29.8831 27.7882 29.8965 27.238 29.9434 26.7032C30.0429 25.5704 30.4381 23.9943 31.5087 23.3696C32.5063 22.7875 34.1568 22.9594 35.2782 22.8574Z" fill="#2F2E41"/>
<path opacity="0.1" d="M34.8715 83.6462C34.8715 83.6462 34.1295 105.151 33.6901 105.811C33.2508 106.472 33.6901 83.5786 33.6901 83.5786L34.8715 83.6462Z" fill="black"/>
<path d="M43.4663 38.5626H45.2238C45.2238 38.5626 52.6932 48.6885 51.8145 49.3488C50.9357 50.0092 51.8145 51.7702 51.8145 51.7702L53.572 55.0721C53.572 55.0721 55.7688 57.0533 55.1098 57.4935C54.4507 57.9338 53.572 59.6948 53.572 59.6948C53.572 59.6948 49.1782 59.0344 47.8601 61.6759L45.0108 58.0717L43.4663 38.5626Z" fill="#D0CDE1"/>
<path d="M44.0874 41.8197L38.0567 44.3151L42.6976 55.576L48.7283 53.0806L44.0874 41.8197Z" fill="#2F2E41"/>
<path d="M43.3806 48.4242C44.0467 48.1485 44.3819 47.428 44.1292 46.8149C43.8765 46.2017 43.1316 45.9281 42.4655 46.2037C41.7993 46.4793 41.4642 47.1998 41.7169 47.813C41.9696 48.4261 42.7144 48.6998 43.3806 48.4242Z" fill="#6C63FF"/>
<path d="M39.0725 56.1727C39.0725 56.1727 23.255 69.3803 20.6187 65.1979C17.9824 61.0155 23.4746 57.4935 23.4746 57.4935C23.4746 57.4935 28.3078 57.7136 33.8 54.1916L39.2922 51.7702C39.2922 51.7702 44.3061 44.5976 46.0147 47.3288C47.7233 50.0601 43.0982 54.8136 39.0725 56.1727Z" fill="#9F616A"/>
<path d="M17.7628 44.5061L15.3462 45.3866V51.9904L14.4675 53.3112C14.4675 53.3112 14.6872 55.9527 15.3462 56.6131C16.0053 57.2735 17.3234 57.0533 16.884 58.5942C16.62 59.5988 16.5455 60.644 16.6643 61.676C16.6643 61.676 20.6187 66.7389 20.8384 66.0785C21.0581 65.4181 24.1337 57.2734 24.5731 57.2734C25.0125 57.2734 20.1794 44.5061 20.1794 44.5061H17.7628Z" fill="#D0CDE1"/>
<path d="M46.6517 77.8552C46.6517 77.8552 48.9233 75.654 47.7875 75.5439C46.6517 75.4338 42.6973 73.2325 42.0383 74.3332C41.3792 75.4338 46.6517 77.8552 46.6517 77.8552Z" fill="#2F2E41"/>
<path d="M89.8542 35.864C91.6045 35.864 93.0233 35.1113 93.0233 34.1828C93.0233 33.2544 91.6045 32.5017 89.8542 32.5017C88.1039 32.5017 86.6851 33.2544 86.6851 34.1828C86.6851 35.1113 88.1039 35.864 89.8542 35.864Z" fill="#57B894"/>
<path d="M101.971 39.7867C94.8254 37.0823 87.6793 37.0823 80.5332 39.7867V31.0075C87.5236 28.8938 94.981 28.8938 101.971 31.0075V39.7867Z" stroke="#3F3D56" stroke-width="2" stroke-miterlimit="10"/>
<path d="M98.9887 37.9711C93.8311 36.0193 88.6735 36.0193 83.5159 37.9711V31.6348C88.5611 30.1094 93.9434 30.1094 98.9887 31.6348V37.9711Z" stroke="#3F3D56" stroke-width="2" stroke-miterlimit="10"/>
<path d="M90.9727 35.1169C92.7229 35.1169 94.1418 34.3642 94.1418 33.4358C94.1418 32.5073 92.7229 31.7546 90.9727 31.7546C89.2224 31.7546 87.8035 32.5073 87.8035 33.4358C87.8035 34.3642 89.2224 35.1169 90.9727 35.1169Z" stroke="#3F3D56" stroke-width="2" stroke-miterlimit="10"/>
<path d="M92.1845 46.3923C93.8994 46.0416 95.1394 45.0199 94.9541 44.1102C94.7688 43.2005 93.2283 42.7473 91.5134 43.098C89.7985 43.4487 88.5585 44.4705 88.7438 45.3802C88.9291 46.2899 90.4696 46.7431 92.1845 46.3923Z" fill="#57B894"/>
<path d="M104.84 47.8077C97.2983 46.5899 90.2966 48.0218 83.8346 52.1033L82.0825 43.5015C88.5099 40.0298 95.8166 38.5356 103.088 39.2058L104.84 47.8077Z" stroke="#3F3D56" stroke-width="2" stroke-miterlimit="10"/>
<path d="M101.555 46.6265C96.112 45.7475 91.0585 46.781 86.3946 49.7268L85.1301 43.5185C89.769 41.0129 95.0426 39.9344 100.29 40.4181L101.555 46.6265Z" stroke="#3F3D56" stroke-width="2" stroke-miterlimit="10"/>
<path d="M93.1312 45.4361C94.8461 45.0853 96.0861 44.0636 95.9008 43.1539C95.7155 42.2442 94.1751 41.791 92.4602 42.1417C90.7453 42.4924 89.5053 43.5142 89.6906 44.4239C89.8759 45.3336 91.4163 45.7868 93.1312 45.4361Z" stroke="#3F3D56" stroke-width="2" stroke-miterlimit="10"/>
<path d="M94.3531 55.4147C94.4175 54.4885 93.0542 53.6389 91.3081 53.5172C89.5621 53.3954 88.0945 54.0476 88.0302 54.9738C87.9658 55.9 89.3291 56.7496 91.0752 56.8713C92.8212 56.9931 94.2888 56.3409 94.3531 55.4147Z" fill="#57B894"/>
<path d="M102.891 61.6272C95.95 58.4324 88.8211 57.9353 81.5049 60.136L82.1132 51.378C89.2332 49.7557 96.6726 50.2744 103.5 52.8692L102.891 61.6272Z" stroke="#3F3D56" stroke-width="2" stroke-miterlimit="10"/>
<path d="M100.042 59.6086C95.0317 57.3027 89.8866 56.944 84.6062 58.5323L85.0452 52.2113C90.184 51.0404 95.5533 51.4148 100.481 53.2875L100.042 59.6086Z" stroke="#3F3D56" stroke-width="2" stroke-miterlimit="10"/>
<path d="M95.5208 54.747C95.5852 53.8207 94.2219 52.9712 92.4758 52.8494C90.7298 52.7277 89.2622 53.3799 89.1979 54.3061C89.1336 55.2323 90.4969 56.0818 92.2429 56.2036C93.9889 56.3253 95.4565 55.6732 95.5208 54.747Z" stroke="#3F3D56" stroke-width="2" stroke-miterlimit="10"/>
<path d="M77.3494 39.9905C77.3494 39.9905 63.6483 38.1124 53.864 43.8578" stroke="#3F3D56" stroke-width="2" stroke-miterlimit="10"/>
<path d="M54.1937 41.9271L54.5496 42.0399L53.9933 43.7956L55.7818 44.2232L55.6947 44.5868L53.5168 44.0655L54.1937 41.9271Z" fill="#3F3D56"/>
</svg>
