<svg width="133" height="151" viewBox="0 0 133 151" fill="none" xmlns="http://www.w3.org/2000/svg">
<path d="M63.4432 141.656L63.2747 137.868C63.2572 137.859 63.2397 137.85 63.2221 137.84C61.4167 136.893 59.3476 138.608 59.9242 140.563C60.4668 142.403 60.8313 144.387 61.8245 145.998C62.4113 146.933 63.2011 147.724 64.1353 148.313C65.0695 148.902 66.1242 149.273 67.2213 149.399L69.515 150.803C69.8298 149.048 69.7604 147.246 69.3116 145.521C68.8629 143.796 68.0455 142.189 66.9157 140.81C66.2742 140.042 65.5387 139.359 64.7265 138.775C64.1771 140.224 63.4432 141.656 63.4432 141.656Z" fill="#F2F2F2"/>
<path d="M42.9073 103.211C38.4913 98.6566 32.0919 96.0447 25.35 96.0447L25.0899 96.0454C20.6492 96.0471 16.2877 94.8693 12.4515 92.6323L12.0524 92.3997L12.3739 92.0685C14.1145 90.2676 15.5679 88.2098 16.6832 85.9673C15.8911 86.7058 14.9464 87.2612 13.9158 87.5941C12.8853 87.927 11.7942 88.0293 10.7197 87.8938C9.58536 87.7586 8.49634 87.3682 7.53435 86.752C6.57237 86.1359 5.7624 85.3099 5.16519 84.336C2.80883 80.5128 0 75.0879 0 70.9551C0.00366805 67.4619 0.735081 64.0078 2.14762 60.8129C3.56016 57.618 5.62283 54.7525 8.20417 52.3989C9.83838 50.9254 11.1437 49.124 12.035 47.1122C12.9263 45.1003 13.3836 42.9232 13.3771 40.7228L13.3758 40.4096C13.3754 37.5126 13.7294 34.6264 14.43 31.8154L14.5011 31.5316L14.7932 31.5418C16.6766 31.6058 18.5609 31.448 20.4074 31.0714C18.6754 30.859 16.9811 30.4083 15.3724 29.7323L15.0582 29.6052L15.1648 29.2832C22.5151 24.7322 39.1066 27.089 48.7369 5.05558C56.5457 -12.8105 84.0978 20.9153 84.0978 40.4096C84.0978 42.3988 82.1292 45.0274 83.6029 46.3422C99.5335 60.5546 88.5416 69.6809 85.076 78.8642C84.2538 81.0431 86.0367 83.435 86.0367 85.7923C86.0367 86.1922 86.0265 86.6051 86.0063 87.0194L85.9756 87.6563L85.4445 87.3029C84.3937 86.6145 83.4197 85.8156 82.539 84.9198C83.4526 87.0221 83.8832 89.3026 83.799 91.5934C83.7148 93.8841 83.1181 96.1268 82.0527 98.1565C80.3833 101.308 78.7681 103.563 77.2522 104.861C72.3962 109.017 66.1362 111.16 59.7522 110.853C53.3682 110.547 47.3425 107.813 42.9073 103.211Z" fill="#E6E6E6"/>
<path d="M69.5785 150.616C69.6871 150.616 69.7919 150.577 69.8739 150.505C69.9558 150.434 70.0094 150.336 70.0247 150.228C70.0438 150.094 71.9215 136.551 70.2351 118.553C68.6777 101.932 63.6763 77.9903 48.6941 58.3278C48.6582 58.2806 48.6133 58.2409 48.5621 58.211C48.5109 58.1812 48.4543 58.1617 48.3955 58.1537C48.3367 58.1457 48.277 58.1494 48.2196 58.1645C48.1623 58.1797 48.1085 58.206 48.0613 58.2419C48.0141 58.2779 47.9745 58.3228 47.9447 58.374C47.9149 58.4253 47.8955 58.4819 47.8876 58.5407C47.8797 58.5995 47.8835 58.6593 47.8987 58.7166C47.9139 58.7739 47.9402 58.8277 47.9763 58.8748C62.8291 78.3675 67.7902 102.133 69.3366 118.637C71.0132 136.531 69.1502 149.968 69.1312 150.101C69.1222 150.165 69.127 150.23 69.1453 150.292C69.1636 150.354 69.195 150.412 69.2374 150.461C69.2799 150.509 69.3323 150.549 69.3911 150.575C69.4499 150.602 69.5138 150.616 69.5785 150.616Z" fill="#3F3D56"/>
<path d="M57.3521 86.0627C57.4474 86.0627 57.5403 86.0326 57.6174 85.9767C57.6946 85.9207 57.752 85.8417 57.7815 85.7511C57.811 85.6605 57.811 85.5628 57.7816 85.4722C57.7522 85.3815 57.6948 85.3025 57.6177 85.2465C57.5633 85.2069 52.0824 81.2577 43.8885 78.2575C36.3138 75.4844 24.7954 72.9704 12.9374 76.7443C12.8808 76.7622 12.8284 76.7911 12.783 76.8293C12.7376 76.8675 12.7002 76.9142 12.6729 76.9669C12.6456 77.0196 12.629 77.0771 12.6239 77.1362C12.6189 77.1953 12.6256 77.2548 12.6436 77.3113C12.6615 77.3678 12.6905 77.4202 12.7288 77.4656C12.767 77.5109 12.8138 77.5482 12.8666 77.5754C12.9193 77.6026 12.9768 77.6192 13.0359 77.6241C13.095 77.629 13.1545 77.6223 13.211 77.6042C24.8261 73.9078 36.1357 76.3802 43.5782 79.105C51.6551 82.0624 57.0338 85.9377 57.0872 85.9765C57.1641 86.0325 57.2569 86.0627 57.3521 86.0627Z" fill="#3F3D56"/>
<path d="M78.0036 34.6274C78.0105 34.5324 77.9872 34.4376 77.9369 34.3566C77.8867 34.2756 77.812 34.2126 77.7238 34.1767C77.6355 34.1407 77.5381 34.1337 77.4455 34.1565C77.353 34.1793 77.2701 34.2308 77.2086 34.3037C77.1653 34.3551 72.8316 39.5374 69.2491 47.494C65.9377 54.8493 62.6007 66.1568 65.5109 78.2558C65.5389 78.3721 65.6119 78.4726 65.714 78.535C65.8161 78.5975 65.9387 78.6169 66.0551 78.5889C66.1714 78.5609 66.2719 78.4879 66.3344 78.3858C66.3968 78.2838 66.4162 78.1611 66.3882 78.0448C63.5379 66.1936 66.8184 55.0914 70.0721 47.8645C73.6034 40.0215 77.856 34.9359 77.8985 34.8854C77.96 34.8127 77.9968 34.7224 78.0036 34.6274Z" fill="#3F3D56"/>
<path d="M77.393 57.8939C77.7737 60.9654 79.902 63.4979 82.997 63.4979C84.4833 63.4979 85.9087 62.9075 86.9597 61.8566C88.0107 60.8056 88.6011 59.3802 88.6011 57.8939C88.6011 54.7988 86.0788 52.5759 82.997 52.2898C79.7271 51.9862 76.9042 53.9504 77.393 57.8939Z" fill="#2F2E41"/>
<path d="M85.5926 148.148L87.7267 148.147L88.7419 139.916L85.5922 139.916L85.5926 148.148Z" fill="#FFB6B6"/>
<path d="M85.5176 150.374L92.0801 150.374V150.291C92.0801 149.613 91.811 148.964 91.3319 148.484C90.8529 148.005 90.2032 147.736 89.5258 147.736H89.5257L88.3269 146.827L86.0903 147.736L85.5175 147.736L85.5176 150.374Z" fill="#2F2E41"/>
<path d="M77.1865 148.148L79.3205 148.147L80.3357 139.916L77.186 139.916L77.1865 148.148Z" fill="#FFB6B6"/>
<path d="M77.1115 150.374L83.674 150.374V150.291C83.674 149.613 83.4049 148.964 82.9258 148.484C82.4468 148.005 81.7971 147.736 81.1197 147.736H81.1196L79.9208 146.827L77.6842 147.736L77.1114 147.736L77.1115 150.374Z" fill="#2F2E41"/>
<path d="M92.9365 96.5921L94.4453 101.765L92.6679 123.674C92.6679 123.674 93.5832 125.044 92.9365 125.044C92.2899 125.044 91.4607 125.347 91.9831 126.165C92.5055 126.983 90.72 129.92 90.72 129.92L88.1946 145.52L84.9768 145.472C84.9768 145.472 83.3408 144.561 84.2589 143.639C85.177 142.718 85.8236 142.718 84.9615 141.856C84.0993 140.994 84.0993 141.253 84.0993 140.585C84.0993 139.916 83.2355 131.744 85.284 128.609L84.6668 115.829L83.213 128.365L80.2196 145.089L77.1197 145.063C77.1197 145.063 75.6879 143.683 75.6906 142.662C75.6932 141.64 76.5752 141.555 75.9187 140.951C75.2621 140.347 75.2621 131.065 77.202 125.906C77.202 125.906 78.2993 123.023 77.1995 122.035C76.0997 121.048 77.1981 119.917 77.1981 119.917C77.1981 119.917 78.9401 119.288 77.1966 117.473C75.4531 115.659 77.1872 102.827 77.1872 102.827C77.1872 102.827 75.2812 97.6478 77.2115 95.6112C79.1419 93.5745 92.9365 96.5921 92.9365 96.5921Z" fill="#2F2E41"/>
<path d="M66.064 105.505L68.756 98.999L70.8769 100.177L69.596 106.795C69.7243 107.214 69.7331 107.661 69.6214 108.085C69.5097 108.509 69.282 108.893 68.9638 109.195C68.6456 109.497 68.2495 109.704 67.8202 109.793C67.3909 109.881 66.9452 109.849 66.5334 109.698C66.1216 109.548 65.7599 109.286 65.489 108.941C65.2182 108.596 65.0488 108.183 65 107.747C64.9513 107.311 65.025 106.87 65.213 106.474C65.4009 106.078 65.6956 105.742 66.064 105.505Z" fill="#FFB6B6"/>
<path d="M111.236 54.0611L107.14 59.7875L105.341 58.1593L108.088 52.0039C108.058 51.5665 108.151 51.1294 108.356 50.7417C108.561 50.3541 108.87 50.0312 109.248 49.8095C109.626 49.5878 110.059 49.476 110.497 49.4867C110.935 49.4974 111.362 49.6301 111.729 49.87C112.096 50.1099 112.389 50.4474 112.575 50.8445C112.76 51.2417 112.831 51.6828 112.78 52.1182C112.729 52.5537 112.557 52.9662 112.285 53.3094C112.012 53.6527 111.649 53.913 111.236 54.0611Z" fill="#FFB6B6"/>
<path d="M93.343 97.1224C95.9997 101.243 82.6454 106.473 77.5213 104.373C76.624 104.006 73.5376 102.791 75.6473 101.108C77.7569 99.4244 75.4027 99.1875 75.347 98.0916C75.3098 97.3589 75.8771 95.7517 75.2852 95.8206C74.6934 95.8895 74.0007 94.8763 75.2896 94.4403C76.5786 94.0042 75.3035 93.6066 75.3148 93.1927C75.438 88.676 78.9035 81.4917 78.9035 81.4917L72.659 97.454C72.659 97.454 72.7052 100.216 71.9088 99.3716C71.1125 98.5278 71.1705 101.259 71.1705 101.259C71.1705 101.259 69.9864 102.085 70.6673 102.545C71.3482 103.005 69.9342 104.419 69.9342 104.419L66.635 104.184C66.635 104.184 66.6867 101.733 67.25 101.191C67.8133 100.649 67.5366 99.7958 67.5366 99.7958C67.5366 99.7958 69.0033 98.4975 68.02 97.4433C66.7554 96.0876 71.3661 73.1885 72.9573 73.4152C73.1822 72.3204 73.7055 71.3091 74.4694 70.4931C75.2332 69.6771 76.2078 69.0882 77.2854 68.7915L80.8487 67.8104L81.4815 65.2999H86.499L87.373 66.9495L91.1876 68.6709C91.9061 67.6571 92.4431 66.5888 95.3854 66.2425C95.3854 66.2425 103.314 59.029 102.926 58.4658C102.539 57.9025 103.768 56.5839 103.768 56.5839C103.768 56.5839 104.818 56.2404 104.226 56.0569C103.633 55.8735 104.753 55.4495 104.753 55.4495C104.753 55.4495 105.79 55.1771 105.301 54.8183C104.812 54.4596 106.933 54.2239 106.933 54.2239L109.684 56.4692L109.128 57.4123C109.128 57.4123 109.467 58.6965 109.025 58.2276C108.582 57.7588 108.499 59.1194 108.499 59.1194C108.499 59.1194 108.273 60.6092 106.933 61.058C105.592 61.5069 104.576 65.7712 104.576 65.7712C101.415 69.881 97.6849 73.087 93.2644 75.1975C94.9872 77.175 93.343 97.1224 93.343 97.1224Z" fill="#524EF8"/>
<path d="M83.6165 63.8307C86.361 63.8307 88.5859 61.6058 88.5859 58.8612C88.5859 56.1167 86.361 53.8918 83.6165 53.8918C80.8719 53.8918 78.647 56.1167 78.647 58.8612C78.647 61.6058 80.8719 63.8307 83.6165 63.8307Z" fill="#FFB6B6"/>
<path d="M78.4706 59.4027C78.628 60.4825 79.5483 61.9892 79.3328 61.9892C79.1173 61.9892 77.5848 57.5375 79.1173 57.2472C80.2289 57.0367 80.4773 57.2214 81.5162 56.7709L81.3697 56.9089C82.0573 57.4089 83.0143 57.1007 83.7988 56.7752C84.5856 56.4519 85.5404 56.1437 86.2301 56.6416C86.6634 56.9541 86.8466 57.4973 87.116 57.9585C87.3854 58.4219 87.8833 58.8595 88.3963 58.7172C88.808 58.603 89.0451 58.1417 89.0429 57.715C89.0408 57.2882 88.4851 56.8822 88.6722 56.4993C89.2269 55.3646 88.7281 54.5912 87.5191 54.0572C87.0794 53.9904 86.6397 53.9222 86.2 53.8525C86.4304 53.5333 86.7097 53.2525 87.0276 53.0205C86.8933 52.6761 86.661 52.3786 86.3595 52.1648C86.0081 51.9557 85.5727 51.9708 85.1654 51.9923C84.2558 52.0398 83.3469 52.0872 82.4388 52.1346C81.7663 52.1691 81.0701 52.21 80.4687 52.5183C79.7186 52.9041 79.2272 53.6563 78.8694 54.4215C78.0676 56.1415 78.1947 57.5253 78.4706 59.4027Z" fill="#2F2E41"/>
<path d="M57.798 150.934L106.672 151C106.74 151 106.805 150.973 106.853 150.925C106.902 150.877 106.929 150.811 106.929 150.743C106.929 150.675 106.902 150.61 106.853 150.562C106.805 150.514 106.74 150.487 106.672 150.487L57.798 150.42C57.7299 150.42 57.6646 150.448 57.6165 150.496C57.5683 150.544 57.5413 150.609 57.5413 150.677C57.5413 150.745 57.5683 150.81 57.6165 150.859C57.6646 150.907 57.7299 150.934 57.798 150.934Z" fill="#CACACA"/>
<path d="M40.1214 128.562C40.2115 127.943 39.5629 127.336 38.6728 127.207C37.7826 127.077 36.9879 127.474 36.8978 128.093C36.8077 128.713 37.4563 129.32 38.3465 129.449C39.2367 129.579 40.0313 129.182 40.1214 128.562Z" fill="#E6E6E6"/>
<path d="M50.7199 127.528C50.81 126.909 50.1614 126.302 49.2713 126.172C48.3811 126.043 47.5864 126.44 47.4963 127.059C47.4062 127.678 48.0548 128.285 48.945 128.415C49.8352 128.545 50.6298 128.148 50.7199 127.528Z" fill="#3F3D56"/>
<path d="M37.2193 119.982C37.3094 119.363 36.6608 118.756 35.7706 118.626C34.8805 118.497 34.0858 118.894 33.9957 119.513C33.9056 120.132 34.5542 120.739 35.4443 120.869C36.3345 120.998 37.1292 120.601 37.2193 119.982Z" fill="#FF6584"/>
<path d="M32.614 116.468C32.6183 115.899 32.3011 115.436 31.9057 115.433C31.5102 115.43 31.1861 115.888 31.1818 116.457C31.1775 117.025 31.4946 117.489 31.8901 117.491C32.2856 117.494 32.6097 117.036 32.614 116.468Z" fill="#E6E6E6"/>
<path d="M31.0522 109.921C31.0565 109.353 30.7394 108.889 30.3439 108.886C29.9484 108.883 29.6244 109.342 29.6201 109.91C29.6158 110.479 29.9329 110.942 30.3284 110.945C30.7238 110.948 31.0479 110.49 31.0522 109.921Z" fill="#3F3D56"/>
<path d="M43.1969 121.442C43.2012 120.874 42.8841 120.411 42.4886 120.408C42.0932 120.405 41.7691 120.863 41.7648 121.431C41.7605 122 42.0776 122.463 42.4731 122.466C42.8685 122.469 43.1926 122.011 43.1969 121.442Z" fill="#E6E6E6"/>
<path d="M38.0752 123.999C38.0795 123.431 37.7624 122.968 37.3669 122.965C36.9715 122.962 36.6474 123.42 36.6431 123.989C36.6388 124.557 36.9559 125.02 37.3514 125.023C37.7469 125.026 38.0709 124.568 38.0752 123.999Z" fill="#FF6584"/>
<path d="M45.2048 128.726C45.2091 128.157 44.892 127.694 44.4965 127.691C44.101 127.688 43.7769 128.147 43.7726 128.715C43.7683 129.284 44.0854 129.747 44.4809 129.75C44.8764 129.753 45.2005 129.294 45.2048 128.726Z" fill="#3F3D56"/>
<path d="M121.596 95.3691C121.686 94.7498 121.038 94.1428 120.148 94.0133C119.257 93.8838 118.463 94.2808 118.373 94.9C118.282 95.5193 118.931 96.1263 119.821 96.2558C120.711 96.3853 121.506 95.9883 121.596 95.3691Z" fill="#E6E6E6"/>
<path d="M132.195 94.3349C132.285 93.7156 131.636 93.1087 130.746 92.9791C129.856 92.8496 129.061 93.2466 128.971 93.8659C128.881 94.4851 129.529 95.0921 130.42 95.2216C131.31 95.3512 132.105 94.9541 132.195 94.3349Z" fill="#3F3D56"/>
<path d="M118.694 86.7888C118.784 86.1696 118.135 85.5626 117.245 85.433C116.355 85.3035 115.56 85.7005 115.47 86.3198C115.38 86.939 116.029 87.546 116.919 87.6756C117.809 87.8051 118.604 87.4081 118.694 86.7888Z" fill="#FF6584"/>
<path d="M114.089 83.2742C114.093 82.7057 113.776 82.2424 113.38 82.2394C112.985 82.2364 112.661 82.6949 112.656 83.2634C112.652 83.8319 112.969 84.2951 113.365 84.2981C113.76 84.3011 114.084 83.8427 114.089 83.2742Z" fill="#E6E6E6"/>
<path d="M112.527 76.7278C112.531 76.1593 112.214 75.696 111.819 75.693C111.423 75.69 111.099 76.1485 111.095 76.717C111.09 77.2855 111.408 77.7488 111.803 77.7518C112.198 77.7547 112.523 77.2963 112.527 76.7278Z" fill="#3F3D56"/>
<path d="M124.672 88.2489C124.676 87.6804 124.359 87.2171 123.963 87.2142C123.568 87.2112 123.244 87.6696 123.239 88.2381C123.235 88.8066 123.552 89.2699 123.948 89.2729C124.343 89.2759 124.667 88.8174 124.672 88.2489Z" fill="#E6E6E6"/>
<path d="M119.55 90.8061C119.554 90.2376 119.237 89.7743 118.842 89.7713C118.446 89.7683 118.122 90.2267 118.118 90.7952C118.113 91.3637 118.431 91.827 118.826 91.83C119.222 91.833 119.546 91.3746 119.55 90.8061Z" fill="#FF6584"/>
<path d="M126.679 95.5324C126.684 94.9639 126.367 94.5006 125.971 94.4976C125.576 94.4946 125.252 94.953 125.247 95.5215C125.243 96.09 125.56 96.5533 125.956 96.5563C126.351 96.5593 126.675 96.1009 126.679 95.5324Z" fill="#3F3D56"/>
<path d="M82.152 33.9397C82.2421 33.3205 81.5935 32.7135 80.7034 32.584C79.8132 32.4545 79.0185 32.8515 78.9284 33.4707C78.8383 34.09 79.4869 34.697 80.3771 34.8265C81.2673 34.956 82.0619 34.559 82.152 33.9397Z" fill="white"/>
<path d="M92.7505 32.9056C92.8406 32.2863 92.1921 31.6793 91.3019 31.5498C90.4117 31.4203 89.617 31.8173 89.5269 32.4366C89.4368 33.0558 90.0854 33.6628 90.9756 33.7923C91.8658 33.9218 92.6604 33.5248 92.7505 32.9056Z" fill="#3F3D56"/>
<path d="M79.2499 25.3594C79.34 24.7402 78.6914 24.1332 77.8012 24.0037C76.911 23.8741 76.1164 24.2711 76.0263 24.8904C75.9362 25.5096 76.5848 26.1167 77.4749 26.2462C78.3651 26.3757 79.1598 25.9787 79.2499 25.3594Z" fill="#FF6584"/>
<path d="M74.6445 21.8448C74.6488 21.2763 74.3317 20.813 73.9362 20.81C73.5408 20.8071 73.2167 21.2655 73.2124 21.834C73.2081 22.4025 73.5252 22.8658 73.9207 22.8688C74.3161 22.8717 74.6402 22.4133 74.6445 21.8448Z" fill="#E6E6E6"/>
<path d="M73.0828 15.2985C73.0871 14.73 72.77 14.2667 72.3745 14.2637C71.979 14.2607 71.6549 14.7192 71.6506 15.2877C71.6463 15.8562 71.9634 16.3194 72.3589 16.3224C72.7544 16.3254 73.0785 15.867 73.0828 15.2985Z" fill="#3F3D56"/>
<path d="M85.2275 26.8196C85.2318 26.2511 84.9147 25.7878 84.5192 25.7848C84.1237 25.7818 83.7996 26.2403 83.7954 26.8088C83.7911 27.3773 84.1082 27.8406 84.5036 27.8435C84.8991 27.8465 85.2232 27.3881 85.2275 26.8196Z" fill="#E6E6E6"/>
<path d="M80.1058 29.3767C80.1101 28.8082 79.793 28.345 79.3975 28.342C79.0021 28.339 78.678 28.7974 78.6737 29.3659C78.6694 29.9344 78.9865 30.3977 79.382 30.4007C79.7774 30.4037 80.1015 29.9452 80.1058 29.3767Z" fill="#FF6584"/>
<path d="M87.2354 34.1031C87.2397 33.5346 86.9226 33.0713 86.5271 33.0684C86.1316 33.0654 85.8075 33.5238 85.8032 34.0923C85.7989 34.6608 86.116 35.1241 86.5115 35.1271C86.907 35.13 87.2311 34.6716 87.2354 34.1031Z" fill="#3F3D56"/>
</svg>
