<svg width="85" height="85" viewBox="0 0 85 85" fill="none" xmlns="http://www.w3.org/2000/svg">
<path d="M42.5 0C34.0943 0 25.8774 2.49258 18.8883 7.16254C11.8992 11.8325 6.45186 18.4701 3.23514 26.2359C0.0184144 34.0018 -0.823227 42.5471 0.816644 50.7913C2.45652 59.0355 6.50425 66.6083 12.448 72.552C18.3917 78.4958 25.9645 82.5435 34.2087 84.1834C42.4529 85.8232 50.9982 84.9816 58.764 81.7649C66.5299 78.5481 73.1675 73.1008 77.8375 66.1117C82.5074 59.1226 85 50.9057 85 42.5C85 31.2283 80.5223 20.4183 72.552 12.448C64.5817 4.47767 53.7717 0 42.5 0ZM63.75 58.7031C64.4545 59.4076 64.8503 60.3631 64.8503 61.3594C64.8503 62.3556 64.4545 63.3111 63.75 64.0156C63.0455 64.7201 62.09 65.1159 61.0938 65.1159C60.0975 65.1159 59.142 64.7201 58.4375 64.0156L42.5 48.0781L26.5625 64.0687C26.2137 64.4176 25.7996 64.6943 25.3438 64.883C24.8881 65.0718 24.3996 65.169 23.9063 65.169C23.413 65.169 22.9245 65.0718 22.4687 64.883C22.013 64.6943 21.5988 64.4176 21.25 64.0687C20.9012 63.7199 20.6245 63.3058 20.4357 62.85C20.2469 62.3943 20.1498 61.9058 20.1498 61.4125C20.1498 60.9192 20.2469 60.4307 20.4357 59.9749C20.6245 59.5192 20.9012 59.1051 21.25 58.7562L37.1875 42.7125L20.7985 26.1906C20.094 25.4861 19.6982 24.5307 19.6982 23.5344C19.6982 22.5381 20.094 21.5826 20.7985 20.8781C21.5029 20.1736 22.4584 19.7779 23.4547 19.7779C24.451 19.7779 25.4065 20.1736 26.111 20.8781L42.5 37.4531L58.8891 21.0641C59.2379 20.7152 59.652 20.4385 60.1078 20.2497C60.5635 20.061 61.052 19.9638 61.5453 19.9638C62.0386 19.9638 62.5271 20.061 62.9829 20.2497C63.4386 20.4385 63.8527 20.7152 64.2016 21.0641C64.5504 21.4129 64.8271 21.827 65.0159 22.2828C65.2047 22.7385 65.3018 23.227 65.3018 23.7203C65.3018 24.2136 65.2047 24.7021 65.0159 25.1579C64.8271 25.6136 64.5504 26.0277 64.2016 26.3766L47.8125 42.7125L63.75 58.7031Z" fill="#FF8181"/>
</svg>
