<svg width="279" height="151" viewBox="0 0 279 151" fill="none" xmlns="http://www.w3.org/2000/svg">
<path d="M215.412 98.5929C213.145 95.6302 209.217 90.4981 202.461 88.9547C189.732 86.0467 178.795 98.5801 177.763 99.7977C167.464 111.944 165.869 132.954 176.257 143.17C181.581 148.406 188.816 149.59 191.919 150.097C195.564 150.694 204.043 152.081 211.196 147.086C215.036 144.403 216.878 141.009 218.123 138.652C223.963 127.595 224.72 110.754 215.412 98.5929ZM199.602 144.65C192.14 145.421 185.069 138.418 182.164 131.862C180.543 128.131 179.974 124.028 180.521 119.997C181.068 115.966 182.708 112.162 185.264 108.998C186.341 107.692 192.072 100.747 199.99 101.636C207.777 102.51 212.414 110.371 213.94 115.586C217.395 127.396 210.138 143.561 199.602 144.65Z" fill="#524EF8"/>
<path d="M152.544 146.173H148.62L146.753 131.037H152.544L152.544 146.173Z" fill="#FFB6B6"/>
<path d="M152.439 144.891L148.249 143.187L148.129 143.138L145.816 144.891C144.51 144.891 143.257 145.41 142.334 146.334C141.41 147.258 140.891 148.51 140.891 149.816V149.976H153.543V144.891H152.439Z" fill="#2F2E41"/>
<path d="M201.681 115.989L200.795 119.812L185.628 118.217L186.934 112.575L201.681 115.989Z" fill="#FFB6B6"/>
<path d="M200.658 114.724L200.43 115.7L200.407 115.801L197.809 119.496L197.73 119.606L198.914 122.255C198.768 122.885 198.748 123.537 198.855 124.175C198.961 124.813 199.192 125.424 199.535 125.973C199.877 126.521 200.324 126.997 200.851 127.372C201.377 127.748 201.973 128.016 202.603 128.162L202.757 128.197L205.612 115.873L200.658 114.724Z" fill="#2F2E41"/>
<path d="M149.882 64.8185L171.52 65.5758L171.671 65.3567C171.671 65.3567 173.517 69.6633 173.517 73.3548C173.517 74.5821 172.663 82.6094 173.097 84.1281C173.151 84.317 172.78 84.7799 172.902 85.6594C172.981 86.2302 173.417 85.7911 173.517 86.5823C173.589 87.1501 172.821 87.4635 172.902 88.1204C172.989 88.8379 174.045 91.1623 174.14 91.9605C175.152 100.459 173.505 102.667 173.505 102.667C173.505 102.667 192.011 110.422 193.156 110.657C195.077 111.052 196.374 114.545 195.309 115.272C194.802 115.617 193.115 122.06 193.115 122.06C192.755 122.125 191.629 121.561 192.347 120.225C192.479 119.979 191.691 120.605 191.56 120.31C191.421 119.997 189.449 121.371 189.29 121.023C187.858 117.903 169.944 113.579 167.861 111.359C164.783 108.078 162.834 103.9 162.298 99.434L160.513 83.0433L158.876 90.4728L157.521 91.8118L157.893 94.9338L157.828 97.9641L154.445 110.576C154.445 110.576 153.937 134.13 154.752 134.878C155.194 135.283 157.067 140.273 153.522 140.723L147.081 140.226C147.081 140.226 146.213 138.397 146.647 137.746C147.081 137.095 147.055 137.273 146.525 136.208C145.996 135.143 146.213 133.338 146.213 133.338C145.369 124.856 145.036 116.33 145.216 107.808C145.539 93.8104 147.496 77.73 147.496 77.4023C147.512 77.0674 147.45 76.7332 147.315 76.4262V75.5427L148.147 72.4121L149.882 64.8185Z" fill="#2F2E41"/>
<path d="M173.459 69.8801C167.995 70.825 164.332 70.4652 162.077 67.1115C159.136 63.3661 153.786 67.7886 149.273 69.433L148.738 68.8547L147.827 67.8734L148.664 66.9259L147.827 65.0987L148.526 62.8438L149.418 62.6808L149.178 60.7397L148.803 59.6046L149.904 58.3957L150.839 55.378L150.165 49.0626C149.243 40.406 151.03 31.6765 155.278 24.0779L157.834 21.783L158.895 20.8295L160.32 18.1716L161.824 18.347L165.897 18.8176L166.035 19.1499L167.035 21.5616L170.667 25.4629C171.181 26.0146 171.571 26.6695 171.812 27.3838C172.053 28.0981 172.139 28.8556 172.065 29.6058L171.96 30.6578L171.883 31.4145L171.52 35.0567L170.04 49.9362L169.93 50.7268L168.739 59.2816C170.674 61.1519 170.792 60.7439 171.613 64.0354C171.706 64.4014 172.776 65.2166 172.844 65.5734C172.939 66.0779 173.459 69.8801 173.459 69.8801Z" fill="#3F3D56"/>
<path d="M162.366 16.6037C166.273 16.6037 169.44 13.4366 169.44 9.52972C169.44 5.62284 166.273 2.45569 162.366 2.45569C158.459 2.45569 155.292 5.62284 155.292 9.52972C155.292 13.4366 158.459 16.6037 162.366 16.6037Z" fill="#FFB6B6"/>
<path d="M169.767 4.20457C169.3 3.69982 168.699 3.33744 168.035 3.15924C167.371 2.98104 166.67 2.99429 166.013 3.19746C165.725 2.37329 165.216 1.64393 164.542 1.08881C163.868 0.533685 163.055 0.174072 162.191 0.0491232C161.327 -0.075826 160.445 0.0386798 159.642 0.380172C158.838 0.721665 158.144 1.27705 157.634 1.98587C157.401 1.88121 157.145 1.8385 156.89 1.86188C156.636 1.88526 156.392 1.97393 156.182 2.11931C155.765 2.41592 155.429 2.81242 155.205 3.27253C154.626 4.37128 154.357 5.60629 154.425 6.84609C154.492 8.08589 154.895 9.2841 155.59 10.3131C155.313 9.75416 156.092 10.7169 156.85 10.4647C157.502 10.2939 160.179 8.57749 160.847 8.66427C161.515 8.75105 161.731 8.21238 162.385 8.04904C163.025 7.84434 164.658 10.4901 164.986 12.2408C165.048 12.5725 165.199 12.9847 165.536 12.9923C165.952 13.0016 166.076 12.4064 166.427 12.1829C166.592 12.0989 166.783 12.0823 166.96 12.1366C167.138 12.1909 167.287 12.3119 167.377 12.4741C167.459 12.6407 167.499 12.8246 167.496 13.0103C167.493 13.1959 167.445 13.3781 167.357 13.5416C167.178 13.8666 166.947 14.1605 166.674 14.412L166.856 14.5117C167.035 14.6398 167.252 14.7016 167.472 14.6868C167.691 14.6719 167.898 14.5811 168.058 14.4301C168.734 14.7349 170.571 13.0159 170.328 11.9759C170.841 10.7011 171.121 9.34467 171.156 7.97092C171.184 6.58525 170.688 5.24001 169.767 4.20457Z" fill="#2F2E41"/>
<path d="M115.246 28.0414C115.508 28.2874 115.821 28.473 116.162 28.5852C116.503 28.6973 116.865 28.7333 117.222 28.6905C117.578 28.6478 117.921 28.5273 118.226 28.3377C118.531 28.1481 118.791 27.8938 118.987 27.5929L134.109 31.2116L132.599 26.9323L118.136 24.0759C117.609 23.7798 116.991 23.6874 116.4 23.8163C115.809 23.9451 115.286 24.2863 114.93 24.7751C114.574 25.2639 114.409 25.8664 114.467 26.4684C114.526 27.0704 114.803 27.6301 115.246 28.0414Z" fill="#FFB8B8"/>
<path d="M160.422 25.4092L159.211 24.7774L153.686 24.6906L153.484 24.6885L153.472 24.6895L149.236 24.6247L128.78 24.3042L127.957 25.0225L126.693 24.2715L125.259 23.5449L123.944 24.2284L122.818 24.2108L122.647 24.9657L122.645 24.9684L122.64 24.9902L121.878 28.2836L121.877 28.2863L121.886 29.0631L123.21 30.4893L123.911 31.0271L125.368 31.6713L126.377 30.4701L127.559 31.6987L132.409 32.5913C140.515 34.8245 147.979 35.8994 153.707 33.8352L154.427 33.8016L160.113 33.531C160.891 33.4949 161.64 33.2294 162.266 32.7679C162.893 32.3065 163.369 31.6698 163.634 30.9382L163.635 30.9355C163.815 30.4386 163.892 29.9104 163.861 29.3829C163.836 28.898 163.72 28.4223 163.517 27.9809C163.155 27.1779 162.534 26.5187 161.755 26.1075L160.422 25.4092Z" fill="#3F3D56"/>
<path d="M244.766 141.548C245.039 141.558 245.309 141.484 245.539 141.336C245.768 141.187 245.947 140.972 246.05 140.718C246.153 140.465 246.176 140.186 246.115 139.92C246.054 139.653 245.913 139.412 245.711 139.228C245.676 139.095 245.651 138.999 245.616 138.866C245.871 138.199 246.319 137.624 246.903 137.214C247.487 136.804 248.18 136.578 248.894 136.564C249.607 136.551 250.309 136.75 250.908 137.138C251.507 137.526 251.977 138.083 252.257 138.74C253.872 142.424 255.954 146.234 254.976 150.318C261.559 136.014 259.106 118.323 249.06 106.239C246.301 104.754 244.051 102.089 243.442 98.9751C244.805 99.4224 246.488 98.3014 245.453 96.8803C245.005 96.3376 244.553 95.7993 244.105 95.2567C249.212 89.7123 255.443 98.2904 249.834 105.761C251.714 108.073 253.347 110.575 254.707 113.226C254.372 110.4 254.712 107.535 255.701 104.867C256.704 102.379 258.61 100.273 260.285 98.115C262.322 95.4851 266.576 96.649 266.885 99.9588C264.988 100.602 264.767 103.353 266.947 103.708C266.436 109.876 262.464 115.577 256.945 118.333C259.047 124.059 259.905 130.167 259.461 136.251C260.372 129.137 267.982 127.34 273.285 124.466C273.622 124.245 274.016 124.127 274.419 124.127C274.822 124.126 275.217 124.243 275.555 124.463C275.892 124.682 276.159 124.996 276.322 125.364C276.485 125.733 276.537 126.141 276.471 126.539C275.739 126.845 275.038 127.223 274.38 127.668C274.072 127.879 273.836 128.181 273.706 128.532C273.576 128.882 273.558 129.265 273.653 129.626C273.749 129.988 273.954 130.311 274.241 130.551C274.527 130.791 274.881 130.937 275.253 130.969C272.63 137.644 265.726 142.175 258.592 142.218C257.935 145.204 256.969 148.113 255.71 150.899L245.121 151C245.082 150.883 245.047 150.762 245.012 150.644C245.992 150.696 246.976 150.628 247.94 150.442C245.318 147.396 243.297 145.849 244.766 141.549L244.766 141.548Z" fill="#F2F2F2"/>
<path d="M31.8616 111.614C31.5883 111.624 31.3186 111.55 31.089 111.401C30.8594 111.253 30.681 111.038 30.5779 110.784C30.4748 110.531 30.4521 110.252 30.5128 109.986C30.5735 109.719 30.7146 109.477 30.9172 109.294C30.9521 109.16 30.9771 109.065 31.012 108.931C30.7569 108.265 30.3087 107.69 29.7246 107.28C29.1406 106.87 28.4474 106.643 27.7339 106.63C27.0204 106.616 26.3191 106.816 25.7199 107.204C25.1208 107.591 24.651 108.149 24.3709 108.806C22.7553 112.49 20.6734 116.3 21.6519 120.384C15.0686 106.08 17.5222 88.3884 27.5677 76.3052C30.3268 74.8194 32.577 72.1544 33.1858 69.0409C31.8231 69.4882 30.14 68.3672 31.1749 66.9461C31.6229 66.4034 32.075 65.8651 32.5229 65.3225C27.4153 59.7781 21.1851 68.3561 26.794 75.8272C24.9139 78.1389 23.2806 80.6409 21.9207 83.2923C22.2558 80.4663 21.9153 77.6012 20.927 74.9325C19.9234 72.4447 18.0179 70.3393 16.3427 68.1808C14.3061 65.5509 10.0517 66.7147 9.74272 70.0246C11.6393 70.6681 11.8603 73.4186 9.68043 73.774C10.1918 79.9418 14.1637 85.6433 19.6829 88.3987C17.5805 94.1246 16.7227 100.233 17.1666 106.316C16.2555 99.2028 8.64606 97.4062 3.3428 94.5318C3.00563 94.3111 2.61149 94.1932 2.20847 94.1926C1.80544 94.1919 1.41094 94.3086 1.07311 94.5284C0.735269 94.7482 0.468693 95.0615 0.305896 95.4302C0.143099 95.7989 0.0911235 96.207 0.156301 96.6047C0.889117 96.9108 1.58971 97.289 2.24777 97.7337C2.55608 97.9453 2.79141 98.247 2.9215 98.5976C3.05159 98.9482 3.07006 99.3304 2.97439 99.6919C2.87872 100.053 2.67359 100.376 2.38712 100.617C2.10064 100.857 1.74684 101.003 1.37423 101.034C3.99764 107.709 10.9014 112.241 18.0359 112.284C18.6931 115.269 19.6588 118.179 20.9175 120.965L31.5062 121.066C31.5453 120.948 31.5806 120.827 31.6159 120.71C30.6352 120.762 29.6518 120.694 28.6876 120.508C31.3099 117.462 33.3303 115.915 31.8619 111.614L31.8616 111.614Z" fill="#F2F2F2"/>
<path d="M29.2847 110.976C49.1793 107.756 61.4665 140.602 74.298 138.535C97.8141 134.746 88.0668 16.8988 106.45 15.8966C122.121 15.0423 142.224 67.0462 158.826 98.2457C167.552 114.645 172.296 126.309 172.296 126.309C172.296 126.309 165.035 161.545 154.71 147.637C139.96 127.77 128.87 58.1938 120.689 61.3692C108.163 66.2314 122.291 126.053 92.2114 144.506C65.9377 160.624 14.6173 137.723 14.5865 123.377C14.5747 117.868 22.1247 112.134 29.2847 110.976Z" fill="#524EF8"/>
<path d="M124.885 104.256C120.831 105.184 115.507 108.052 115.796 110.694C116.105 113.527 122.87 116.152 128.294 114.481C132.744 113.111 136.793 108.696 135.868 106.15C134.913 103.521 128.827 103.354 124.885 104.256Z" fill="#524EF8"/>
<path d="M231.325 94.7489C232.633 92.5333 234.505 89.2492 233.132 86.9221C231.258 83.7446 225.446 79.5082 221.829 83.6406C219.081 86.7815 219.698 88.0373 219.735 92.9135C219.835 106.225 212.299 134.653 220.175 148.18C221.65 150.713 229.799 150.211 233.028 150.526C236.606 150.875 240.49 147.395 240.269 143.368C240.071 139.762 236.682 138.712 233.295 136.34C221.117 127.808 224.548 106.223 231.325 94.7489Z" fill="#524EF8"/>
<path d="M77.4077 18.5045C77.3254 19.4923 77.2455 20.4801 77.1682 21.468C77.109 22.625 76.9475 23.7744 76.6855 24.9029C76.6256 25.2161 76.4908 25.5101 76.2926 25.7598C75.9409 26.1602 76.592 28.5025 76.1093 28.727C75.6191 28.9605 75.0927 29.1086 74.5527 29.1648C74.5303 29.0002 74.5003 28.8356 74.4666 28.6747C74.4629 28.6559 74.4592 28.641 74.4554 28.6223C74.3025 27.8919 74.0199 27.1949 73.621 26.5643C73.715 27.3115 73.6317 28.0704 73.3778 28.7794C73.3366 28.8954 73.288 29.0114 73.2356 29.1274C71.114 28.8131 69.2768 27.38 67.8287 27.395C66.9491 24.4451 66.3293 21.424 65.9765 18.366C65.883 17.5503 65.8306 16.6448 66.332 15.9975C66.7773 15.4213 67.5369 15.2117 68.2478 15.0583C70.5705 14.5565 72.9441 14.3292 75.3198 14.381L71.2075 13.4231C72.3624 13.358 73.5204 13.4677 74.6425 13.7487C75.7463 14.0817 76.7903 14.8113 77.2168 15.8852C77.5424 16.7047 77.475 17.6252 77.4077 18.5045Z" fill="#2F2E41"/>
<path d="M54.2473 142.886H50.2889L48.4056 127.618L54.2481 127.618L54.2473 142.886Z" fill="#FFB6B6"/>
<path d="M42.2998 148.727C42.3017 149.17 42.4785 149.595 42.7917 149.909C43.1049 150.223 43.5294 150.401 43.9728 150.403H51.4244L51.6553 149.925L52.7093 147.75L53.1175 149.925L53.2079 150.403H56.0185L55.9784 149.922L55.2289 140.934L54.2485 140.874L50.0124 140.623L48.9718 140.559V143.243C48.1821 144.083 41.9852 147.258 42.2998 148.727Z" fill="#2F2E41"/>
<path d="M100.622 138.578L97.1791 140.531L88.0065 128.181L93.0878 125.298L100.622 138.578Z" fill="#FFB6B6"/>
<path d="M93.1127 149.554C93.3317 149.94 93.695 150.223 94.1228 150.342C94.5507 150.46 95.0081 150.404 95.3946 150.186L95.7861 149.965H95.7895L101.876 146.509L101.682 143.567L103.428 145.629L104.717 144.896L105.871 144.24L104.851 142.748L100.511 136.394L99.6274 136.829L95.8162 138.699L94.8861 139.157L96.2077 141.49C95.9367 142.614 92.1155 148.429 93.1127 149.554Z" fill="#2F2E41"/>
<path d="M73.8915 67.9386C78.5281 68.1052 77.8161 79.0899 79.2636 88.6441C80.5549 97.1681 84.3321 104.367 83.0688 104.673L95.5714 127.973C90.6825 132.514 84.9458 135.525 77.7758 135.95C69.995 128.8 67.8613 112.347 66.0749 95.3217L64.1247 110.273L66.7249 134L55.2221 136.782L47.2659 136.213C40.5225 109.013 53.2804 78.2516 58.7729 66.5642L73.8915 67.9386Z" fill="#2F2E41"/>
<path d="M78.8103 62.2552L80.9165 55.9365L82.421 53.8303L83.0227 47.8126C83.0227 31.5647 79.3986 34.2703 79.3986 34.2703L74.6712 28.5558L69.2929 28.3877L65.0428 28.2549L61.5093 34.1222C59.9524 34.6717 58.5665 35.6191 57.4893 36.8703C56.4121 38.1215 55.6811 39.6328 55.3691 41.2541L54.3912 46.3353L58.0491 57.441L57.8878 56.6157C56.1658 59.7945 56.6039 60.2727 58.0297 62.6594L58.1006 63.5213C58.1664 64.2965 58.4738 65.0317 58.9794 65.6231C59.485 66.2145 60.1635 66.6323 60.9191 66.8179C76.1536 70.6146 77.7368 77.2561 79.6953 74.5142C80.1504 73.877 78.2191 66.2726 78.8777 66.3385C80.6824 66.519 78.8103 62.2552 78.8103 62.2552Z" fill="#E6E6E6"/>
<path d="M89.2355 85.772C88.9253 85.4865 88.6809 85.137 88.5191 84.7477C88.3572 84.3584 88.2819 83.9386 88.2983 83.5174C88.3146 83.0961 88.4223 82.6834 88.6138 82.3078C88.8054 81.9323 89.0762 81.6028 89.4076 81.3422L85.633 67.3334L89.2511 65.3367L93.6127 82.0079C94.0098 82.5984 94.1766 83.314 94.0814 84.0192C93.9862 84.7244 93.6356 85.3702 93.096 85.8342C92.5565 86.2982 91.8655 86.5481 91.1539 86.5367C90.4424 86.5252 89.7598 86.2531 89.2355 85.772H89.2355Z" fill="#FFB6B6"/>
<path d="M78.8417 33.8616C78.8417 33.8616 85.5595 35.9073 86.1505 39.4789C86.7415 43.0505 87.774 46.2013 87.5072 47.6624C87.2403 49.1234 90.5727 58.9017 89.9232 60.0265C89.2737 61.1512 91.0207 61.3948 90.4175 63.2385C89.8143 65.0822 89.478 65.4648 89.8606 65.8011C90.2433 66.1375 91.8938 73.4488 91.8938 73.4488L86.8609 74.9109L77.5913 51.9421L78.8417 33.8616Z" fill="#E6E6E6"/>
<path d="M52.3774 85.772C52.6876 85.4865 52.9321 85.137 53.0939 84.7477C53.2557 84.3584 53.3311 83.9386 53.3147 83.5173C53.2983 83.0961 53.1907 82.6834 52.9991 82.3078C52.8076 81.9323 52.5367 81.6028 52.2053 81.3422L55.98 67.3334L52.3618 65.3367L48.0003 82.0079C47.6031 82.5984 47.4364 83.314 47.5316 84.0192C47.6268 84.7244 47.9774 85.3702 48.517 85.8342C49.0565 86.2982 49.7475 86.5481 50.459 86.5366C51.1705 86.5252 51.8531 86.2531 52.3774 85.772L52.3774 85.772Z" fill="#FFB6B6"/>
<path d="M62.7712 33.8616C62.7712 33.8616 56.0535 35.9073 55.4624 39.4789C54.8714 43.0505 53.8389 46.2013 54.1058 47.6624C54.3726 49.1234 51.0403 58.9017 51.6897 60.0265C52.3392 61.1512 50.5923 61.3948 51.1954 63.2385C51.7986 65.0822 52.1349 65.4648 51.7523 65.8011C51.3697 66.1375 49.7191 73.4488 49.7191 73.4488L54.752 74.9109L64.0216 51.9421L62.7712 33.8616Z" fill="#E6E6E6"/>
<path d="M68.2718 27.4688C72.8967 27.4688 76.6459 23.7196 76.6459 19.0947C76.6459 14.4698 72.8967 10.7206 68.2718 10.7206C63.6469 10.7206 59.8977 14.4698 59.8977 19.0947C59.8977 23.7196 63.6469 27.4688 68.2718 27.4688Z" fill="#FFB6B6"/>
<path d="M76.7678 32.3762C73.6097 29.568 78.9941 21.5469 74.7884 16.1938L74.2832 15.8157C73.9025 16.5402 73.2842 17.1118 72.5321 17.4344C72.3751 16.7045 72.1116 16.0016 71.75 15.3484C71.8408 16.1575 71.7683 16.9767 71.5367 17.7573C71.301 17.787 71.1326 17.753 71.0728 17.6468C71.1476 18.2968 69.1607 18.6197 69.5761 17.6086C69.5791 17.5984 69.5828 17.5885 69.5873 17.5788C69.0747 18.6112 68.0195 19.0913 67.1027 19.6648C66.186 20.2341 65.2543 21.1858 65.3441 22.3668C65.4189 23.3227 66.1486 24.0365 66.882 24.5123C67.6154 24.9924 68.4386 25.3662 68.9699 26.1097C69.8642 27.3588 69.6546 29.1899 69.2019 30.7108C69.1114 30.9537 68.9633 31.171 68.7704 31.3442C68.5775 31.5173 68.3455 31.6411 68.0943 31.7049C67.945 30.8859 67.6632 30.0966 67.2599 29.3683C67.3541 30.2144 67.2713 31.071 67.0167 31.8834C66.4713 31.9073 65.9268 31.8202 65.4161 31.6274C64.9054 31.4347 64.4392 31.1401 64.0457 30.7618L64.6107 33.2684C63.7014 33.0772 62.7847 33.2939 61.8605 33.4596C61.8365 33.1759 61.7978 32.8937 61.7445 32.6141C61.5991 31.7736 61.3132 30.9636 60.8988 30.218C61.0145 31.2541 60.8638 32.3026 60.4611 33.2642C60.4162 33.3746 60.3675 33.4851 60.3151 33.5913C58.8932 33.4893 57.4751 32.6608 57.7445 30.5069C57.863 29.8157 58.151 29.1647 58.5827 28.6121C59.3161 27.5839 55.578 26.4836 55.8063 25.2431C56.1468 23.4035 59.5555 21.7763 59.2861 19.9197C59.0467 18.2373 59.0936 14.4396 60.0195 13.1307C61.3572 11.2397 59.8733 7.32772 69.3815 9.54924C72.9187 10.3757 74.1448 6.90591 79.4768 17.5016C80.391 19.3182 77.0671 18.6937 79.0203 22.5878C80.9735 26.4819 75.3796 29.568 76.7678 32.3762Z" fill="#2F2E41"/>
<path d="M2.81458e-06 150.523C-0.00101869 150.31 0.276145 150.136 0.619103 150.135H278.068C278.412 150.135 278.691 150.309 278.691 150.523C278.691 150.737 278.412 150.911 278.068 150.911H0.622808C0.279855 150.911 0.00101684 150.739 2.81458e-06 150.525V150.523Z" fill="#CCCCCC"/>
<path d="M142.545 70.6955C142.884 70.5778 143.194 70.387 143.451 70.1367C143.709 69.8864 143.909 69.5826 144.036 69.2468C144.164 68.9109 144.216 68.5512 144.19 68.193C144.163 67.8347 144.058 67.4866 143.883 67.1732L154.103 55.4559L149.612 54.8083L140.372 66.2959C139.865 66.6258 139.497 67.1301 139.337 67.7134C139.177 68.2967 139.237 68.9184 139.504 69.4607C139.772 70.003 140.23 70.4282 140.79 70.6558C141.35 70.8834 141.975 70.8975 142.545 70.6955V70.6955Z" fill="#FFB8B8"/>
<path d="M147.018 64.1758L148.47 62.5741L149.871 62.4535L149.966 62.3343L150.332 61.8671L150.473 60.566L151.549 60.3135L153.947 57.2501L154.313 56.6404L164.381 44.8773L166.435 41.4571L166.758 40.7621L167.764 38.5984L167.631 33.1421C167.851 32.6709 167.975 32.1607 167.996 31.641C168.017 31.1213 167.935 30.6027 167.754 30.1152C167.696 29.9573 167.628 29.8031 167.55 29.6538L167.494 29.5477C167.346 29.2864 167.17 29.0427 166.968 28.8212L166.965 28.816C166.608 28.4257 166.175 28.1132 165.693 27.898C165.316 27.7263 164.915 27.6152 164.505 27.5689C163.556 27.4637 162.602 27.7037 161.816 28.2448L160.58 29.0991L159.459 29.8806L156.891 34.6064L156.723 34.9145L156.717 34.9221L148.812 49.4667L146.429 53.8523L146.065 54.5183L146.032 56.4667L144.886 56.6836L143.532 57.6968L143.396 59.4222L142.76 62.2042L142.663 62.361L143.256 62.7124L143.313 62.7451L143.421 62.8403L144.931 64.1359L145.846 64.9239L145.876 64.9484L146.114 65.1725L147.018 64.1758Z" fill="#3F3D56"/>
<path d="M60.2235 14.1267C60.2423 14.1338 60.2588 14.1409 60.2776 14.148C60.3135 14.1639 60.3504 14.1774 60.3881 14.1883C60.6284 14.2766 60.8789 14.3341 61.1336 14.3596C61.2422 14.3714 61.3514 14.3771 61.4606 14.3769C61.6007 14.3774 61.7407 14.3683 61.8795 14.3497C62.034 14.3308 62.1867 14.2997 62.3363 14.2568C62.4072 14.2378 62.4772 14.2152 62.5459 14.1891C63.0136 14.0229 63.4364 13.7505 63.7811 13.3933C64.1258 13.0361 64.383 12.6038 64.5323 12.1305V12.1281C64.5483 12.0818 64.5617 12.0347 64.5727 11.987C64.6426 11.7222 64.6781 11.4494 64.6783 11.1755V11.1708C64.68 10.5028 64.4718 9.85117 64.083 9.30802C63.8485 8.97564 63.5777 8.92009 63.7296 8.54002C64.2143 7.32764 62.2313 6.33656 61.0607 6.86966C61.0185 6.86563 60.9761 6.86396 60.9337 6.86463C60.1454 6.86264 59.853 8.02666 59.3831 8.68197L59.3967 8.6864C59.5157 8.72806 59.6187 8.80588 59.6914 8.90896C59.764 9.01204 59.8025 9.13522 59.8017 9.2613C59.8008 9.38738 59.7606 9.51005 59.6866 9.61214C59.6126 9.71424 59.5086 9.79065 59.3891 9.83071C59.0762 9.93265 58.76 10.0227 58.4407 10.1008C57.3873 11.3448 58.5948 14.9843 60.2235 14.1267Z" fill="#2F2E41"/>
<path d="M63.9907 8.99347C64.0336 10.1114 63.7471 11.2174 63.1666 12.1738C62.5861 13.1303 61.7373 13.895 60.7258 14.373C60.315 14.5591 59.9573 13.95 60.371 13.7626C61.2749 13.3457 62.0344 12.6696 62.5532 11.8201C63.072 10.9706 63.3266 9.98616 63.2848 8.99168C63.2613 8.53768 63.9673 8.54084 63.9907 8.99348V8.99347Z" fill="#524EF8"/>
</svg>
